<?xml version="1.0" encoding="UTF-8" standalone="no"?>
<svg width="136px" height="30px" viewBox="0 0 136 30" version="1.1" xmlns="http://www.w3.org/2000/svg" xmlns:xlink="http://www.w3.org/1999/xlink">
    <!-- Generator: Sketch 3.7.2 (28276) - http://www.bohemiancoding.com/sketch -->
    <title>Stratasus logo</title>
    <desc>Created with Sketch.</desc>
    <defs>
        <polygon id="path-1" points="3.189 2.5744 3.189 0.1824 0.7956 0.1824 0.7956 2.5744 3.189 2.5744"></polygon>
    </defs>
    <g id="Page-1" stroke="none" stroke-width="1" fill="none" fill-rule="evenodd">
        <g id="Stratasus-logo">
            <g id="Page-1">
                <path d="M24.4664,0.0002 L19.4954,5.3592 L19.4954,8.9372 L19.4954,20.7662 C19.4954,21.9652 19.7784,22.8532 20.3414,23.4282 C21.2114,24.3332 22.8324,24.7452 25.2064,24.6622 L27.5864,24.5742 L27.5864,20.8192 C27.4214,20.8312 27.2544,20.8402 27.0844,20.8452 C26.9144,20.8522 26.7524,20.8542 26.6004,20.8542 C25.5774,20.8542 24.9664,20.7582 24.7664,20.5632 C24.5664,20.3702 24.4664,19.8782 24.4664,19.0922 L24.4664,8.9372 L27.5864,8.9372 L27.5864,5.3592 L24.4664,5.3592 L24.4664,0.0002 Z" id="Fill-1" fill="#FFFFFF"></path>
                <path d="M16.1389,14.4456 C15.5619,14.0276 14.8999,13.6916 14.1599,13.4366 C13.4179,13.1816 12.6579,12.9666 11.8779,12.7876 C11.1239,12.6106 10.3839,12.4446 9.6529,12.2916 C8.9249,12.1396 8.2769,11.9686 7.7119,11.7766 C7.1469,11.5866 6.6879,11.3396 6.3349,11.0336 C5.9839,10.7286 5.8069,10.3366 5.8069,9.8516 C5.8069,9.4466 5.9089,9.1216 6.1099,8.8796 C6.3099,8.6376 6.5559,8.4546 6.8459,8.3266 C7.1329,8.2006 7.4539,8.1156 7.8049,8.0796 C8.1589,8.0406 8.4839,8.0216 8.7869,8.0216 C9.7409,8.0216 10.5709,8.2076 11.2739,8.5746 C11.9789,8.9426 12.3679,9.6476 12.4429,10.6906 L17.5349,10.6906 C17.4339,9.4706 17.1249,8.4586 16.6109,7.6596 C16.0949,6.8596 15.4479,6.2176 14.6679,5.7336 C13.8889,5.2526 13.0029,4.9086 12.0099,4.7056 C11.0159,4.4996 9.9939,4.3996 8.9369,4.3996 C7.8809,4.3996 6.8509,4.4946 5.8459,4.6856 C4.8399,4.8746 3.9339,5.2066 3.1309,5.6766 C2.3249,6.1466 1.6779,6.7886 1.1879,7.6016 C0.6989,8.4166 0.4529,9.4586 0.4529,10.7286 C0.4529,11.5946 0.6279,12.3236 0.9809,12.9206 C1.3329,13.5186 1.7969,14.0146 2.3759,14.4066 C2.9529,14.8036 3.6129,15.1206 4.3559,15.3616 C5.0979,15.6036 5.8579,15.8126 6.6369,15.9896 C8.5469,16.3966 10.0379,16.8036 11.1059,17.2116 C12.1729,17.6166 12.7089,18.2276 12.7089,19.0406 C12.7089,19.5236 12.5959,19.9256 12.3679,20.2416 C12.1439,20.5586 11.8609,20.8136 11.5199,21.0036 C11.1799,21.1966 10.8049,21.3346 10.3879,21.4246 C9.9739,21.5136 9.5779,21.5556 9.2029,21.5556 C8.6749,21.5556 8.1629,21.4946 7.6739,21.3666 C7.1839,21.2396 6.7509,21.0416 6.3739,20.7756 C5.9959,20.5076 5.6899,20.1666 5.4479,19.7456 C5.2099,19.3276 5.0909,18.8256 5.0909,18.2416 L-0.0001,18.2416 C0.0509,19.5626 0.3459,20.6616 0.8859,21.5366 C1.4269,22.4136 2.1189,23.1206 2.9609,23.6546 C3.8019,24.1896 4.7649,24.5696 5.8459,24.7976 C6.9259,25.0286 8.0319,25.1406 9.1629,25.1406 C10.2699,25.1406 11.3569,25.0326 12.4239,24.8156 C13.4949,24.6026 14.4419,24.2246 15.2719,23.6916 C16.1019,23.1576 16.7749,22.4526 17.2909,21.5746 C17.8039,20.6996 18.0619,19.6136 18.0619,18.3166 C18.0619,17.4006 17.8869,16.6326 17.5349,16.0086 C17.1809,15.3886 16.7159,14.8666 16.1389,14.4456" id="Fill-3" fill="#FFFFFF"></path>
                <path d="M57.9357,23.0759 C57.7707,22.8409 57.6707,22.3929 57.6357,21.7349 C57.6127,20.8669 57.6007,20.1269 57.6007,19.5159 L57.6007,10.7019 C57.6007,8.3849 56.7817,6.8109 55.1397,5.9759 C53.4997,5.1419 51.6217,4.7239 49.5087,4.7239 C46.2647,4.7239 43.9727,5.5709 42.6407,7.2639 C41.8027,8.3449 41.3297,9.7249 41.2237,11.4069 L46.0717,11.4069 C46.1907,10.6659 46.4297,10.0779 46.7857,9.6429 C47.2857,9.0559 48.1387,8.7619 49.3427,8.7619 C50.4127,8.7619 51.2277,8.9119 51.7817,9.2109 C52.3347,9.5119 52.6117,10.0539 52.6117,10.8419 C52.6117,11.4889 52.2497,11.9649 51.5287,12.2709 C51.1257,12.4459 50.4567,12.5929 49.5207,12.7099 L47.7997,12.9209 C45.8447,13.1689 44.3657,13.5809 43.3587,14.1569 C41.5247,15.2129 40.6077,16.9239 40.6077,19.2859 C40.6077,21.1069 41.1767,22.5149 42.3187,23.5069 C43.4587,24.5009 44.9037,24.9979 46.6527,24.9979 C48.0247,24.9979 49.2547,24.6849 50.3417,24.0619 C51.2517,23.5339 52.0547,22.8929 52.7537,22.1409 C52.7887,22.5759 52.8347,22.9639 52.8937,23.3039 C52.9527,23.6469 53.0587,24.0089 53.2117,24.3969 L58.6757,24.3969 L58.6757,23.6569 C58.3467,23.5039 58.1007,23.3109 57.9357,23.0759 L57.9357,23.0759 Z M52.5937,16.9239 C52.5587,18.6049 52.0787,19.7609 51.1527,20.3959 C50.2287,21.0319 49.2177,21.3479 48.1197,21.3479 C47.4257,21.3479 46.8387,21.1579 46.3567,20.7759 C45.8717,20.3929 45.6307,19.7739 45.6307,18.9159 C45.6307,17.9529 46.0257,17.2419 46.8177,16.7839 C47.2857,16.5139 48.0547,16.2829 49.1267,16.0959 L50.2707,15.8839 C50.8427,15.7779 51.2927,15.6639 51.6197,15.5389 C51.9467,15.4169 52.2727,15.2549 52.5937,15.0549 L52.5937,16.9239 Z" id="Fill-6" fill="#FFFFFF"></path>
                <path d="M67.243,20.8481 C67.127,20.8521 67.009,20.8541 66.901,20.8541 C65.879,20.8541 65.267,20.7571 65.069,20.5641 C64.867,20.3691 64.768,19.8791 64.768,19.0921 L64.768,8.9381 L67.889,8.9381 L67.889,5.3591 L64.768,5.3591 L64.768,0.0001 L60.013,5.3591 L60.013,8.9381 L60.013,20.7651 C60.013,21.9641 60.296,22.8521 60.86,23.4271 C61.64,24.2401 62.858,24.6501 64.813,24.6681 L64.814,24.6721 C67.827,24.7421 68.973,24.4801 68.973,24.4801 C68.985,24.4791 69.001,24.4771 69.015,24.4751 C68.078,23.4981 67.485,22.2831 67.243,20.8481" id="Fill-8" fill="#FFFFFF"></path>
                <path d="M86.3024,23.0759 C86.1374,22.8409 86.0374,22.3929 86.0024,21.7349 C85.9794,20.8669 85.9674,20.1269 85.9674,19.5159 L85.9674,10.7019 C85.9674,8.3849 85.1484,6.8109 83.5064,5.9759 C81.8664,5.1419 79.9884,4.7239 77.8754,4.7239 C74.6294,4.7239 72.3394,5.5709 71.0064,7.2639 C70.1694,8.3449 69.6964,9.7249 69.5904,11.4069 L74.4384,11.4069 C74.5574,10.6659 74.7964,10.0779 75.1524,9.6429 C75.6524,9.0559 76.5054,8.7619 77.7074,8.7619 C78.7794,8.7619 79.5944,8.9119 80.1464,9.2109 C80.7014,9.5119 80.9784,10.0539 80.9784,10.8419 C80.9784,11.4889 80.6164,11.9649 79.8954,12.2709 C79.4924,12.4459 78.8234,12.5929 77.8874,12.7099 L76.1644,12.9209 C74.2114,13.1689 72.7324,13.5809 71.7254,14.1569 C69.8894,15.2129 68.9744,16.9239 68.9744,19.2859 C68.9744,21.1069 69.5434,22.5149 70.6834,23.5069 C71.8254,24.5009 73.2704,24.9979 75.0194,24.9979 C76.3914,24.9979 77.6194,24.6849 78.7084,24.0619 C79.6184,23.5339 80.4214,22.8929 81.1184,22.1409 C81.1534,22.5759 81.2014,22.9639 81.2604,23.3039 C81.3194,23.6469 81.4234,24.0089 81.5784,24.3969 L87.0424,24.3969 L87.0424,23.6569 C86.7134,23.5039 86.4674,23.3109 86.3024,23.0759 L86.3024,23.0759 Z M80.9604,16.9239 C80.9254,18.6049 80.4454,19.7609 79.5204,20.3959 C78.5954,21.0319 77.5844,21.3479 76.4854,21.3479 C75.7924,21.3479 75.2054,21.1579 74.7234,20.7759 C74.2384,20.3929 73.9974,19.7739 73.9974,18.9159 C73.9974,17.9529 74.3924,17.2419 75.1844,16.7839 C75.6524,16.5139 76.4204,16.2829 77.4934,16.0959 L78.6374,15.8839 C79.2104,15.7779 79.6594,15.6639 79.9864,15.5389 C80.3134,15.4169 80.6394,15.2549 80.9604,15.0549 L80.9604,16.9239 Z" id="Fill-10" fill="#FFFFFF"></path>
                <path d="M90.4398,10.409 C90.4398,8.481 91.9318,7.172 94.6948,7.172 C97.4238,7.172 99.3878,8.226 99.7878,11.137 L102.0068,11.137 C101.4618,6.881 98.8068,5.208 94.7318,5.208 C90.5488,5.208 88.1128,7.463 88.1128,10.592 C88.1128,18.011 100.1878,14.156 100.1878,19.611 C100.1878,21.431 98.6978,23.103 95.5318,23.103 C92.2578,23.103 90.5858,21.903 89.8948,18.665 L87.6738,18.665 C87.8568,22.231 90.4028,25.067 94.8408,25.067 C99.2788,25.067 102.5168,23.177 102.5168,19.576 C102.5168,12.337 90.4398,15.538 90.4398,10.409" id="Fill-12" fill="#FFFFFF"></path>
                <path d="M121.9151,10.409 C121.9151,8.481 123.4071,7.172 126.1721,7.172 C128.8991,7.172 130.8641,8.226 131.2651,11.137 L133.4821,11.137 C132.9371,6.881 130.2821,5.208 126.2071,5.208 C122.0241,5.208 119.5861,7.463 119.5861,10.592 C119.5861,18.011 131.6651,14.156 131.6651,19.611 C131.6651,21.431 130.1731,23.103 127.0091,23.103 C123.7351,23.103 122.0611,21.903 121.3691,18.665 L119.1511,18.665 C119.3321,22.231 121.8801,25.067 126.3161,25.067 C130.7541,25.067 133.9941,23.177 133.9941,19.576 C133.9941,12.337 121.9151,15.538 121.9151,10.409" id="Fill-14" fill="#FFFFFF"></path>
                <polygon id="Fill-16" fill="#FFFFFF" points="116.8696 5.7166 110.8316 21.9026 104.7926 5.7166 102.3556 5.7166 109.6656 24.7026 109.7276 24.8616 107.8046 30.0166 110.0556 30.0166 119.2346 5.7166"></polygon>
                <path d="M40.0957,4.7959 C38.5917,4.7959 37.3687,5.1899 36.4277,5.9729 C35.8347,6.4559 35.1897,7.2929 34.4017,8.5899 L34.4017,5.2519 L29.6077,5.2519 L29.6077,24.3979 L34.6657,24.3979 L34.6657,15.2449 C34.6657,13.7119 34.8587,12.5769 35.2467,11.8399 C35.9397,10.5269 37.2987,9.8719 39.3197,9.8719 C39.4737,9.8719 39.6727,9.8779 39.9207,9.8899 C40.0957,9.8969 40.2977,9.9149 40.5097,9.9359 L40.5097,4.8169 C40.4287,4.8119 40.3697,4.8079 40.3347,4.8039 C40.2697,4.7999 40.1907,4.7959 40.0957,4.7959" id="Fill-18" fill="#FFFFFF"></path>
                <g id="Group-22" transform="translate(132.000000, 5.016800)">
                    <mask id="mask-2" fill="white">
                        <use xlink:href="#path-1"></use>
                    </mask>
                    <g id="Clip-21"></g>
                    <path d="M1.9926,0.1824 C1.3206,0.1824 0.7956,0.7074 0.7956,1.3794 C0.7956,2.0494 1.3206,2.5744 1.9926,2.5744 C2.6626,2.5744 3.1896,2.0494 3.1896,1.3794 C3.1896,0.7074 2.6626,0.1824 1.9926,0.1824 M1.9926,2.3444 C1.4506,2.3444 1.0436,1.9284 1.0436,1.3794 C1.0436,0.8284 1.4506,0.4124 1.9926,0.4124 C2.5346,0.4124 2.9416,0.8284 2.9416,1.3794 C2.9416,1.9284 2.5346,2.3444 1.9926,2.3444" id="Fill-20" fill="#FFFFFF" mask="url(#mask-2)"></path>
                </g>
                <path d="M134.317,6.4285 L134.317,6.4245 C134.439,6.3755 134.492,6.2775 134.492,6.1475 C134.492,5.9795 134.366,5.8405 134.168,5.8405 L133.571,5.8405 L133.571,6.9495 L133.815,6.9495 L133.815,6.5165 L134.059,6.5165 C134.18,6.5165 134.226,6.5665 134.244,6.6845 C134.256,6.7725 134.252,6.8795 134.282,6.9495 L134.526,6.9495 C134.482,6.8865 134.484,6.7575 134.478,6.6865 C134.471,6.5765 134.437,6.4585 134.317,6.4285 M134.082,6.3425 L133.815,6.3425 L133.815,6.0305 L134.082,6.0305 C134.191,6.0305 134.248,6.0775 134.248,6.1845 C134.248,6.2965 134.191,6.3425 134.082,6.3425" id="Fill-23" fill="#FFFFFF"></path>
            </g>
        </g>
    </g>
</svg>